<?xml version="1.0"?>
<svg xmlns="http://www.w3.org/2000/svg" xmlns:xlink="http://www.w3.org/1999/xlink" xmlns:svgjs="http://svgjs.com/svgjs" version="1.1" width="512" height="512" x="0" y="0" viewBox="0 0 24 24" style="enable-background:new 0 0 512 512" xml:space="preserve"><g><path xmlns="http://www.w3.org/2000/svg" d="m3.5 2h-3c-.276 0-.5.224-.5.5v3c0 .276.224.5.5.5h3c.276 0 .5-.224.5-.5v-3c0-.276-.224-.5-.5-.5z" fill="#ffffff" data-original="#000000" style=""/><path xmlns="http://www.w3.org/2000/svg" d="m3.5 10h-3c-.276 0-.5.224-.5.5v3c0 .276.224.5.5.5h3c.276 0 .5-.224.5-.5v-3c0-.276-.224-.5-.5-.5z" fill="#ffffff" data-original="#000000" style=""/><path xmlns="http://www.w3.org/2000/svg" d="m3.5 18h-3c-.276 0-.5.224-.5.5v3c0 .276.224.5.5.5h3c.276 0 .5-.224.5-.5v-3c0-.276-.224-.5-.5-.5z" fill="#ffffff" data-original="#000000" style=""/><path xmlns="http://www.w3.org/2000/svg" d="m8 5h15c.553 0 1-.447 1-1s-.447-1-1-1h-15c-.553 0-1 .447-1 1s.447 1 1 1z" fill="#ffffff" data-original="#000000" style=""/><path xmlns="http://www.w3.org/2000/svg" d="m23 11h-15c-.553 0-1 .447-1 1s.447 1 1 1h15c.553 0 1-.447 1-1s-.447-1-1-1z" fill="#ffffff" data-original="#000000" style=""/><path xmlns="http://www.w3.org/2000/svg" d="m23 19h-15c-.553 0-1 .447-1 1s.447 1 1 1h15c.553 0 1-.447 1-1s-.447-1-1-1z" fill="#ffffff" data-original="#000000" style=""/></g></svg>
